<svg xmlns="http://www.w3.org/2000/svg" xmlns:xlink="http://www.w3.org/1999/xlink" fill="none" version="1.1" width="22" height="22" viewBox="0 0 22 22"><defs><clipPath id="master_svg0_12_398"><rect x="0" y="0" width="22" height="22" rx="0"/></clipPath><linearGradient x1="0" y1="0.09733442962169647" x2="1.0619506613183147" y2="0.7335219144102787" id="master_svg1_12_400"><stop offset="0%" stop-color="#0074FF" stop-opacity="1"/><stop offset="100%" stop-color="#8B3EFF" stop-opacity="1"/></linearGradient></defs><g clip-path="url(#master_svg0_12_398)"><g><g><path d="M10.083251953125,2.75C10.083251953125,2.75,11.916551953125,2.75,11.916551953125,2.75C16.472951953124998,2.75,20.166551953125,6.44365,20.166551953125,11C20.166551953125,15.5564,16.472951953124998,19.25,11.916551953125,19.25C11.916551953125,19.25,5.499921953125,19.25,5.499921953125,19.25C3.474871953125,19.25,1.833251953125,17.6083,1.833251953125,15.5833C1.833251953125,15.5833,1.833251953125,11,1.833251953125,11C1.833251953125,6.44365,5.526901953125,2.75,10.083251953125,2.75C10.083251953125,2.75,10.083251953125,2.75,10.083251953125,2.75ZM10.999921953125,11.91667C11.506191953125,11.91667,11.916551953125,11.50627,11.916551953125,11C11.916551953125,10.49373,11.506191953125,10.08333,10.999921953125,10.08333C10.493651953125,10.08333,10.083251953125,10.49373,10.083251953125,11C10.083251953125,11.50627,10.493651953125,11.91667,10.999921953125,11.91667C10.999921953125,11.91667,10.999921953125,11.91667,10.999921953125,11.91667ZM15.583251953125,11C15.583251953125,11.50627,15.172851953125,11.91667,14.666551953125,11.91667C14.160351953125,11.91667,13.749951953125,11.50627,13.749951953125,11C13.749951953125,10.49373,14.160351953125,10.08333,14.666551953125,10.08333C15.172851953125,10.08333,15.583251953125,10.49373,15.583251953125,11C15.583251953125,11,15.583251953125,11,15.583251953125,11ZM7.333251953125,11.91667C7.839511953125,11.91667,8.249921953125,11.50627,8.249921953125,11C8.249921953125,10.49373,7.839511953125,10.08333,7.333251953125,10.08333C6.826991953125,10.08333,6.416581953125,10.49373,6.416581953125,11C6.416581953125,11.50627,6.826991953125,11.91667,7.333251953125,11.91667C7.333251953125,11.91667,7.333251953125,11.91667,7.333251953125,11.91667Z" fill-rule="evenodd" fill="url(#master_svg1_12_400)" fill-opacity="1"/></g></g></g></svg>