<svg xmlns="http://www.w3.org/2000/svg" xmlns:xlink="http://www.w3.org/1999/xlink" fill="none" version="1.1" width="22" height="22" viewBox="0 0 22 22"><defs><clipPath id="master_svg0_12_134"><rect x="0" y="0" width="22" height="22" rx="0"/></clipPath></defs><g clip-path="url(#master_svg0_12_134)"><g><path d="M4.922624062500001,10.216334140625L19.6887140625,14.166694140625L19.6585140625,14.198294140625L19.6365140625,14.474694140625C19.5815140625,15.206194140625,19.4990140625,15.827694140625,19.2515140625,17.472194140625L19.1112140625,18.409994140625C19.0287140625,18.969594140625,18.9710140625,19.419194140625,18.9229140625,19.834494140625C18.8321140625,20.619594140625,18.4182140625,21.236994140625,17.7486140625,21.587594140625C17.4172140625,21.762194140625,17.0611140625,21.859794140625,16.7641140625,21.876294140625L16.677514062500002,21.880494140625L14.7346140625,21.357994140625C14.4852140625,21.293194140625,14.3585140625,21.015294140625,14.4734140625,20.784594140625L15.2337140625,19.247294140625L14.7965140625,19.811094140625C14.4821140625,20.195594140625,14.1421140625,20.558494140625,13.7790140625,20.897294140625C13.6759140625,20.996694140625,13.5282140625,21.034794140625,13.3899140625,20.997694140625L11.7687140625,20.564594140625C11.5202140625,20.499694140625,11.3938140625,20.222994140625,11.5075140625,19.992594140625L12.2692140625,18.455294140625L11.8320140625,19.019094140625C11.5178140625,19.403794140625,11.1779140625,19.766694140625,10.8145040625,20.105294140625C10.7115040625,20.204994140625,10.5637140625,20.243094140625,10.4253740625,20.205694140625L8.5251240625,19.696994140625C8.2787340625,19.630294140625,8.1537840625,19.355994140625,8.2652540625,19.126294140625L9.0256240625,17.589094140625L8.5883740625,18.152794140625C8.2739340625,18.537294140625,7.9340040625,18.900194140625,7.5708740625,19.239094140625C7.4678840625,19.338694140625,7.3200840625,19.376794140625,7.1817540625,19.339494140625L5.8383740625,18.980594140625C5.5902340625,18.914294140625,5.4648040625,18.637494140625,5.5785040625,18.407194140625L6.3388740625,16.871294140625L5.9016240625,17.435094140625C5.7228740625,17.664694140625,5.4616240625,17.950694140625,5.1178740625,18.293094140625C4.8751540625,18.534894140625,4.5220740625,18.629194140625,4.1911240625,18.540594140625L2.5136240625,18.092294140625L2.0172510624999997,17.905294140625C1.3806260625,17.356694140625,1.0588760625,16.585294140625,1.1716261625,15.852494140625C1.2953760625,15.054994140625,1.8660010625,14.399094140625,2.9357540625,13.946694140625C3.6741240625,13.631794140625,4.3877540625,12.353094140625,4.8621240624999995,10.564194140625L4.9446240625,10.253464140625L4.922624062500001,10.214964140625L4.922624062500001,10.216334140625ZM4.0013740625,8.580084140625C4.0344340625,8.531854140625,4.0707240625,8.485914140625,4.1100040625,8.442584140625L6.7692540625,5.533094140625C6.9823740625,5.302094140625,7.3027540625,5.116464140625,7.6685040625,5.018844140625C8.0260040625,4.923964140625,8.3986240625,4.918464140625,8.7135040625,5.002334140625L11.3686140625,5.711834140625L11.4566140625,5.660964140625L12.6460140625,1.2389631406250001C12.8330140625,0.541838140625,13.5906140625,0.133463140625,14.3372140625,0.331463440625L16.1247140625,0.809963140625C16.8714140625,1.0093381406250002,17.3237140625,1.742214140625,17.136714062499998,2.439334140625L15.9474140625,6.861334140625L15.9982140625,6.949344140625L18.5447140625,7.629964140625C18.8582140625,7.712464140625,19.1800140625,7.904964140625,19.4412140625,8.166214140625C19.7080140625,8.431584140625,19.8950140625,8.750594140625,19.9610140625,9.057214140625L20.8066140625,12.904494140625C20.8217140625,12.974094140625,20.8310140625,13.044994140625,20.8341140625,13.116194140625C20.8190140625,13.257794140625,20.7200140625,13.337594140625,20.5399140625,13.356794140625L4.188374062499999,8.981594140625C3.9642540625,8.918344140625,3.9010040625,8.783594140625,4.0000040625,8.578714140625L4.0013740625,8.580084140625Z" fill="#FFFFFF" fill-opacity="1" style="mix-blend-mode:passthrough"/></g></g></svg>