<svg xmlns="http://www.w3.org/2000/svg" xmlns:xlink="http://www.w3.org/1999/xlink" fill="none" version="1.1" width="24" height="24" viewBox="0 0 24 24"><defs><clipPath id="master_svg0_12_144"><rect x="0" y="0" width="24" height="24" rx="0"/></clipPath></defs><g clip-path="url(#master_svg0_12_144)"><g><path d="M11.98388421875,2.3017578125C6.61201421875,2.3017578125,2.25732421875,6.6564478125,2.25732421875,12.0283178125C2.25732421875,17.400157812499998,6.61201421875,21.7572578125,11.98623421875,21.7572578125C17.360424218749998,21.7572578125,21.71512421875,17.4025578125,21.71512421875,12.0283178125C21.71282421875,6.6564478125,17.35812421875,2.30175960064,11.98388421875,2.3017578125ZM16.33622421875,12.0283178125C16.33622421875,12.4572578125,15.98932421875,12.8064578125,15.55812421875,12.8064578125L12.76202421875,12.8064578125L12.76202421875,15.6025578125C12.76202421875,16.0314578125,12.41512421875,16.3806578125,11.98388421875,16.3806578125C11.55498421875,16.3806578125,11.20576421875,16.0337578125,11.20576421875,15.6025578125L11.20576421875,12.8064578125L8.41201421875,12.8064578125C7.98310421875,12.8064578125,7.63388421875,12.4595578125,7.63388421875,12.0283178125C7.63388421875,11.5994178125,7.98076421875,11.2501978125,8.41201421875,11.2501978125L11.20810421875,11.2501978125L11.20810421875,8.4564478125C11.20810421875,8.0275378125,11.55498421875,7.6783178125,11.98623421875,7.6783178125C12.41512421875,7.6783178125,12.76432421875,8.0251978125,12.76432421875,8.4564478125L12.76432421875,11.2525378125L15.56042421875,11.2525378125C15.98702421875,11.2525378125,16.33622421875,11.5994178125,16.33622421875,12.0283178125Z" fill="#FFFFFF" fill-opacity="1" style="mix-blend-mode:passthrough"/></g></g></svg>