<svg t="1724133843817" class="icon" viewBox="0 0 1024 1024" version="1.1" xmlns="http://www.w3.org/2000/svg" p-id="974" width="200" height="200"><path d="M366.26 861.01c-5.48 0-10.99-0.71-16.41-2.17-19.99-5.37-36.1-20.22-43.11-39.7a736.37 736.37 0 0 1-11.39-34.3c-2.98-9.77-10.15-17.54-19.67-21.32-59.13-23.49-101.07-70.43-112.2-125.56-21.35-105.75-21.35-212.98 0-318.73 14.4-71.33 80.05-127.22 163.35-139.07a1332.55 1332.55 0 0 1 375.46 0c83.3 11.85 148.94 67.74 163.35 139.07 21.35 105.75 21.35 212.98 0 318.73-14.41 71.33-80.05 127.22-163.35 139.07-72.71 10.34-146.97 14.67-220.7 12.85-9.15-0.23-18.08 3.39-24.52 9.93-16.21 16.43-33.02 32-49.97 46.29a63.363 63.363 0 0 1-40.83 14.91z m148.29-649.14c-60.61 0-121.21 4.28-181.39 12.84-64.47 9.17-114.94 50.74-125.58 103.43-20.16 99.84-20.16 201.08 0 300.91 8.11 40.16 39.78 74.79 84.71 92.64 22.3 8.86 39.1 27.09 46.1 50.01 3.28 10.76 6.88 21.59 10.7 32.21 2.06 5.72 6.59 9.9 12.45 11.47 5.86 1.58 11.9 0.23 16.55-3.69 15.9-13.41 31.7-28.04 46.94-43.49 15.14-15.34 36.16-23.83 57.66-23.31 71.25 1.76 143-2.42 213.26-12.41 64.47-9.17 114.94-50.74 125.58-103.43 20.16-99.83 20.16-201.08 0-300.91-10.64-52.69-61.11-94.26-125.58-103.43a1288.023 1288.023 0 0 0-181.39-12.84z" fill="#5e6772" p-id="975"></path><path d="M517 594.95c-70.05 0-140.1-3.35-209.66-10.06-12.37-1.19-21.43-12.19-20.24-24.55s12.19-21.43 24.55-20.24c136.25 13.13 274.43 13.13 410.68 0 12.37-1.19 23.36 7.87 24.55 20.24 1.19 12.37-7.87 23.36-20.24 24.55-69.56 6.7-139.61 10.06-209.66 10.06zM517.39 444.97c-70.1 0-140.51-3.37-210.04-10.07-12.37-1.19-21.43-12.19-20.24-24.55s12.19-21.43 24.55-20.24c86.32 8.32 174.05 11.4 260.74 9.16 12.43-0.32 22.75 9.49 23.07 21.91s-9.49 22.75-21.91 23.07c-18.68 0.48-37.42 0.73-56.17 0.73z" fill="#5e6772" p-id="976"></path></svg>