<?xml version="1.0" encoding="UTF-8"?>
<!DOCTYPE svg PUBLIC "-//W3C//DTD SVG 1.1//EN" "http://www.w3.org/Graphics/SVG/1.1/DTD/svg11.dtd">
<svg xmlns="http://www.w3.org/2000/svg" version="1.1" width="256px" height="256px" style="shape-rendering:geometricPrecision; text-rendering:geometricPrecision; image-rendering:optimizeQuality; fill-rule:evenodd; clip-rule:evenodd" xmlns:xlink="http://www.w3.org/1999/xlink">
<g><path style="opacity:0.986" fill="#0069be" d="M 50.5,-0.5 C 57.5,-0.5 64.5,-0.5 71.5,-0.5C 71.6666,24.1689 71.5,48.8356 71,73.5C 67.7296,74.132 64.5629,74.7986 61.5,75.5C 59.2143,75.595 57.2143,76.2616 55.5,77.5C 52.9214,77.3939 50.588,78.0605 48.5,79.5C 47.1747,53.1964 47.1747,26.8631 48.5,0.5C 49.4916,0.67158 50.1583,0.338246 50.5,-0.5 Z"/></g>
<g><path style="opacity:0.986" fill="#0065b8" d="M 71.5,-0.5 C 78.1667,-0.5 84.8333,-0.5 91.5,-0.5C 91.8212,1.04814 92.8212,1.71481 94.5,1.5C 94.5,26.1667 94.5,50.8333 94.5,75.5C 94.5,76.1667 94.5,76.8333 94.5,77.5C 90.5,77.1667 86.5,76.8333 82.5,76.5C 81.8333,76.5 81.1667,76.5 80.5,76.5C 74.3554,75.5098 68.0221,75.1765 61.5,75.5C 64.5629,74.7986 67.7296,74.132 71,73.5C 71.5,48.8356 71.6666,24.1689 71.5,-0.5 Z"/></g>
<g><path style="opacity:0.97" fill="#0261b0" d="M 91.5,-0.5 C 107.167,-0.5 122.833,-0.5 138.5,-0.5C 138.667,14.1705 138.5,28.8371 138,43.5C 136.644,42.6198 135.144,42.2865 133.5,42.5C 125.876,41.4487 118.876,42.9487 112.5,47C 104.058,55.0719 98.0578,64.5719 94.5,75.5C 94.5,50.8333 94.5,26.1667 94.5,1.5C 92.8212,1.71481 91.8212,1.04814 91.5,-0.5 Z"/></g>
<g><path style="opacity:0.978" fill="#0258a1" d="M 138.5,-0.5 C 147.5,-0.5 156.5,-0.5 165.5,-0.5C 165.169,25.3388 165.502,51.0054 166.5,76.5C 166.5,76.8333 166.5,77.1667 166.5,77.5C 164.661,78.7525 162.828,78.7525 161,77.5C 157.604,66.2064 151.771,56.3731 143.5,48C 140.233,45.8703 136.9,44.037 133.5,42.5C 135.144,42.2865 136.644,42.6198 138,43.5C 138.5,28.8371 138.667,14.1705 138.5,-0.5 Z"/></g>
<g><path style="opacity:0.984" fill="#015399" d="M 165.5,-0.5 C 171.167,-0.5 176.833,-0.5 182.5,-0.5C 182.828,24.4079 182.494,49.2413 181.5,74C 186.519,74.4108 191.519,74.9108 196.5,75.5C 198.553,75.4021 200.22,76.0687 201.5,77.5C 198.193,76.9492 194.86,76.6159 191.5,76.5C 183.328,75.4614 174.995,75.4614 166.5,76.5C 165.502,51.0054 165.169,25.3388 165.5,-0.5 Z"/></g>
<g><path style="opacity:0.983" fill="#004f92" d="M 182.5,-0.5 C 187.5,-0.5 192.5,-0.5 197.5,-0.5C 196.519,24.7887 196.185,50.122 196.5,75.5C 191.519,74.9108 186.519,74.4108 181.5,74C 182.494,49.2413 182.828,24.4079 182.5,-0.5 Z"/></g>
<g><path style="opacity:0.987" fill="#004b8c" d="M 197.5,-0.5 C 199.833,-0.5 202.167,-0.5 204.5,-0.5C 206.5,0.166667 208.5,0.833333 210.5,1.5C 210.5,28.5 210.5,55.5 210.5,82.5C 207.594,80.5498 204.594,78.8831 201.5,77.5C 200.22,76.0687 198.553,75.4021 196.5,75.5C 196.185,50.122 196.519,24.7887 197.5,-0.5 Z"/></g>
<g><path style="opacity:0.992" fill="#016cc4" d="M 48.5,0.5 C 47.1747,26.8631 47.1747,53.1964 48.5,79.5C 38.2673,86.5683 35.7673,95.9017 41,107.5C 46.0231,116.195 52.1897,124.028 59.5,131C 49.8685,138.952 43.0352,148.786 39,160.5C 37.5299,169.888 40.6966,177.222 48.5,182.5C 47.5103,206.759 47.177,231.092 47.5,255.5C 45.8333,255.5 44.1667,255.5 42.5,255.5C 36.7008,253.228 31.0341,250.561 25.5,247.5C 24.1667,168.167 24.1667,88.8333 25.5,9.5C 32.2813,4.54053 39.9479,1.54053 48.5,0.5 Z"/></g>
<g><path style="opacity:0.992" fill="#024987" d="M 210.5,1.5 C 216.378,2.293 221.712,4.293 226.5,7.5C 225.883,7.61071 225.383,7.94404 225,8.5C 224.83,89.2367 224.33,169.903 223.5,250.5C 220.167,252.167 216.833,253.833 213.5,255.5C 212.833,255.5 212.167,255.5 211.5,255.5C 210.851,230.372 210.185,205.372 209.5,180.5C 216.036,173.684 217.869,165.684 215,156.5C 209.847,146.843 203.347,138.177 195.5,130.5C 204.053,123.437 210.553,114.771 215,104.5C 218.066,96.0647 216.566,88.7314 210.5,82.5C 210.5,55.5 210.5,28.5 210.5,1.5 Z"/></g>
<g><path style="opacity:0.991" fill="#004582" d="M 226.5,7.5 C 229.4,8.44325 231.733,10.1099 233.5,12.5C 232.833,50.8319 232.5,89.3319 232.5,128C 232.5,166.839 233.167,205.339 234.5,243.5C 231.35,246.579 227.683,248.913 223.5,250.5C 224.33,169.903 224.83,89.2367 225,8.5C 225.383,7.94404 225.883,7.61071 226.5,7.5 Z"/></g>
<g><path style="opacity:0.988" fill="#006fca" d="M 25.5,9.5 C 24.1667,88.8333 24.1667,168.167 25.5,247.5C 11.5322,237.547 2.86554,224.214 -0.5,207.5C -0.5,154.5 -0.5,101.5 -0.5,48.5C 2.93052,31.9623 11.5972,18.9623 25.5,9.5 Z"/></g>
<g><path style="opacity:0.992" fill="#00437e" d="M 233.5,12.5 C 236.764,14.0941 239.431,16.4275 241.5,19.5C 241.17,91.571 241.503,163.571 242.5,235.5C 240.167,238.5 237.5,241.167 234.5,243.5C 233.167,205.339 232.5,166.839 232.5,128C 232.5,89.3319 232.833,50.8319 233.5,12.5 Z"/></g>
<g><path style="opacity:0.977" fill="#004079" d="M 241.5,19.5 C 248.834,27.5013 253.501,36.8346 255.5,47.5C 255.5,101.5 255.5,155.5 255.5,209.5C 253.296,219.241 248.963,227.907 242.5,235.5C 241.503,163.571 241.17,91.571 241.5,19.5 Z"/></g>
<g><path style="opacity:1" fill="#c7cacd" d="M 133.5,42.5 C 136.9,44.037 140.233,45.8703 143.5,48C 151.771,56.3731 157.604,66.2064 161,77.5C 162.828,78.7525 164.661,78.7525 166.5,77.5C 174.819,76.876 183.152,76.5426 191.5,76.5C 194.86,76.6159 198.193,76.9492 201.5,77.5C 204.594,78.8831 207.594,80.5498 210.5,82.5C 216.566,88.7314 218.066,96.0647 215,104.5C 210.553,114.771 204.053,123.437 195.5,130.5C 203.347,138.177 209.847,146.843 215,156.5C 217.869,165.684 216.036,173.684 209.5,180.5C 206.428,181.85 203.428,183.183 200.5,184.5C 190.226,186.645 179.893,186.978 169.5,185.5C 166.713,183.747 163.713,183.414 160.5,184.5C 157.527,195.952 151.86,205.786 143.5,214C 140.233,216.13 136.9,217.963 133.5,219.5C 133.167,219.5 132.833,219.5 132.5,219.5C 124.609,221.154 117.609,219.321 111.5,214C 103.879,205.579 98.2122,196.079 94.5,185.5C 94.0296,184.307 93.0296,183.64 91.5,183.5C 87.9758,183.901 84.6424,184.567 81.5,185.5C 75.5293,186.241 69.5293,186.575 63.5,186.5C 58.2622,185.975 53.2622,184.642 48.5,182.5C 40.6966,177.222 37.5299,169.888 39,160.5C 43.0352,148.786 49.8685,138.952 59.5,131C 52.1897,124.028 46.0231,116.195 41,107.5C 35.7673,95.9017 38.2673,86.5683 48.5,79.5C 50.588,78.0605 52.9214,77.3939 55.5,77.5C 63.7996,76.6287 72.1329,76.2953 80.5,76.5C 81.1667,76.5 81.8333,76.5 82.5,76.5C 86.4227,78.3489 90.4227,78.6822 94.5,77.5C 94.5,76.8333 94.5,76.1667 94.5,75.5C 98.0578,64.5719 104.058,55.0719 112.5,47C 118.876,42.9487 125.876,41.4487 133.5,42.5 Z"/></g>
<g><path style="opacity:1" fill="#0860ac" d="M 115.5,85.5 C 112.374,83.0103 108.708,81.677 104.5,81.5C 104.167,81.5 103.833,81.5 103.5,81.5C 102.89,80.609 102.557,79.609 102.5,78.5C 105.356,66.2739 112.023,56.7739 122.5,50C 132.443,48.9207 139.943,52.754 145,61.5C 147.333,66.1667 149.667,70.8333 152,75.5C 152.667,77.1667 152.667,78.8333 152,80.5C 143.506,83.1086 135.173,86.1086 127,89.5C 123.119,88.2621 119.286,86.9288 115.5,85.5 Z"/></g>
<g><path style="opacity:1" fill="#81aacd" d="M 61.5,75.5 C 68.0221,75.1765 74.3554,75.5098 80.5,76.5C 72.1329,76.2953 63.7996,76.6287 55.5,77.5C 57.2143,76.2616 59.2143,75.595 61.5,75.5 Z"/></g>
<g><path style="opacity:1" fill="#90aac2" d="M 191.5,76.5 C 183.152,76.5426 174.819,76.876 166.5,77.5C 166.5,77.1667 166.5,76.8333 166.5,76.5C 174.995,75.4614 183.328,75.4614 191.5,76.5 Z"/></g>
<g><path style="opacity:1" fill="#6a9bc7" d="M 82.5,76.5 C 86.5,76.8333 90.5,77.1667 94.5,77.5C 90.4227,78.6822 86.4227,78.3489 82.5,76.5 Z"/></g>
<g><path style="opacity:1" fill="#77a3c8" d="M 102.5,78.5 C 102.557,79.609 102.89,80.609 103.5,81.5C 101.448,80.9473 101.115,79.9473 102.5,78.5 Z"/></g>
<g><path style="opacity:1" fill="#5a8ec1" d="M 104.5,81.5 C 108.708,81.677 112.374,83.0103 115.5,85.5C 111.605,84.5376 107.939,83.2043 104.5,81.5 Z"/></g>
<g><path style="opacity:1" fill="#035092" d="M 177.5,83.5 C 183.509,83.3338 189.509,83.5005 195.5,84C 206.312,85.8141 210.145,91.9807 207,102.5C 202.908,111.599 196.908,119.266 189,125.5C 186.312,123.636 183.812,121.636 181.5,119.5C 181.445,108.376 181.445,97.0426 181.5,85.5C 179.473,85.6621 177.473,85.4955 175.5,85C 176.416,84.7216 177.082,84.2216 177.5,83.5 Z"/></g>
<g><path style="opacity:1" fill="#0769bd" d="M 56.5,83.5 C 67.9073,83.1552 79.2407,83.8218 90.5,85.5C 90.1391,93.9443 88.9725,102.278 87,110.5C 80,115.5 73,120.5 66,125.5C 57.2108,118.572 50.8775,109.906 47,99.5C 46.3333,96.8333 46.3333,94.1667 47,91.5C 49.772,88.2166 52.9386,85.5499 56.5,83.5 Z"/></g>
<g><path style="opacity:1" fill="#0d569a" d="M 177.5,83.5 C 177.082,84.2216 176.416,84.7216 175.5,85C 177.473,85.4955 179.473,85.6621 181.5,85.5C 181.445,97.0426 181.445,108.376 181.5,119.5C 176.9,116.748 172.4,113.748 168,110.5C 167.476,105.406 166.476,100.406 165,95.5C 164.211,91.9085 164.378,88.4085 165.5,85C 169.418,83.8436 173.418,83.3436 177.5,83.5 Z"/></g>
<g><path style="opacity:1" fill="#0e66b4" d="M 98.5,103.5 C 97.5655,102.432 97.2322,101.099 97.5,99.5C 97.5,98.5 97.5,97.5 97.5,96.5C 98.9238,94.4855 99.5905,92.1522 99.5,89.5C 105.321,89.3669 110.988,90.8669 116.5,94C 110.631,97.4342 104.631,100.601 98.5,103.5 Z"/></g>
<g><path style="opacity:1" fill="#1a61a7" d="M 156.5,94.5 C 157.036,97.6981 156.369,100.365 154.5,102.5C 148.932,100.141 143.598,97.3079 138.5,94C 143.92,90.407 149.753,88.907 156,89.5C 156.494,91.1341 156.66,92.8008 156.5,94.5 Z"/></g>
<g><path style="opacity:1" fill="#699ac5" d="M 99.5,89.5 C 99.5905,92.1522 98.9238,94.4855 97.5,96.5C 97.4095,93.8478 98.0762,91.5145 99.5,89.5 Z"/></g>
<g><path style="opacity:1" fill="#3b74ae" d="M 156.5,94.5 C 158.125,97.6499 158.458,100.983 157.5,104.5C 156.261,104.058 155.261,103.391 154.5,102.5C 156.369,100.365 157.036,97.6981 156.5,94.5 Z"/></g>
<g><path style="opacity:1" fill="#5f96c5" d="M 97.5,99.5 C 97.2322,101.099 97.5655,102.432 98.5,103.5C 98.44,104.043 98.1067,104.376 97.5,104.5C 96.2121,102.701 96.2121,101.035 97.5,99.5 Z"/></g>
<g><path style="opacity:1" fill="#0d64b2" d="M 139.5,103.5 C 138.631,105.717 138.298,108.05 138.5,110.5C 137.5,110.5 136.5,110.5 135.5,110.5C 120.892,106.976 110.392,111.976 104,125.5C 102.709,138.396 108.209,147.229 120.5,152C 125.352,152.815 130.019,152.648 134.5,151.5C 135.833,151.5 137.167,151.5 138.5,151.5C 138.5,153.833 138.5,156.167 138.5,158.5C 135.699,159.735 133.032,161.235 130.5,163C 128.5,163.667 126.5,163.667 124.5,163C 114.6,158.469 105.1,153.302 96,147.5C 95.3333,136.5 95.3333,125.5 96,114.5C 105.1,108.698 114.6,103.531 124.5,99C 126.167,98.3333 127.833,98.3333 129.5,99C 132.741,100.789 136.074,102.289 139.5,103.5 Z"/></g>
<g><path style="opacity:1" fill="#c3c8cd" d="M 135.5,110.5 C 151.253,117.341 155.086,128.341 147,143.5C 143.421,147.276 139.254,149.943 134.5,151.5C 130.019,152.648 125.352,152.815 120.5,152C 108.209,147.229 102.709,138.396 104,125.5C 110.392,111.976 120.892,106.976 135.5,110.5 Z"/></g>
<g><path style="opacity:1" fill="#095ba4" d="M 139.5,103.5 C 145.702,107.101 152.036,110.434 158.5,113.5C 159.477,124.752 159.811,136.086 159.5,147.5C 152.658,151.422 145.658,155.088 138.5,158.5C 138.5,156.167 138.5,153.833 138.5,151.5C 137.167,151.5 135.833,151.5 134.5,151.5C 139.254,149.943 143.421,147.276 147,143.5C 155.086,128.341 151.253,117.341 135.5,110.5C 136.5,110.5 137.5,110.5 138.5,110.5C 138.298,108.05 138.631,105.717 139.5,103.5 Z"/></g>
<g><path style="opacity:1" fill="#0660ad" d="M 121.5,117.5 C 130.324,115.44 137.157,118.107 142,125.5C 144.138,134.053 141.305,140.219 133.5,144C 118.335,146.829 111.501,140.662 113,125.5C 115.074,121.923 117.907,119.256 121.5,117.5 Z"/></g>
<g><path style="opacity:1" fill="#156bba" d="M 86.5,120.5 C 87.1255,127.584 86.4589,134.25 84.5,140.5C 80.1216,137.641 76.1216,134.308 72.5,130.5C 76.9247,126.729 81.5913,123.395 86.5,120.5 Z"/></g>
<g><path style="opacity:1" fill="#10599c" d="M 168.5,120.5 C 173.427,123.42 178.094,126.754 182.5,130.5C 178.46,134.704 173.96,138.371 169,141.5C 168.5,134.508 168.334,127.508 168.5,120.5 Z"/></g>
<g><path style="opacity:1" fill="#7ba1c0" d="M 158.5,113.5 C 159.829,118.792 160.496,124.458 160.5,130.5C 160.499,136.343 160.166,142.01 159.5,147.5C 159.811,136.086 159.477,124.752 158.5,113.5 Z"/></g>
<g><path style="opacity:1" fill="#8cafce" d="M 86.5,120.5 C 87.4912,127.313 87.8245,134.313 87.5,141.5C 86.209,141.737 85.209,141.404 84.5,140.5C 86.4589,134.25 87.1255,127.584 86.5,120.5 Z"/></g>
<g><path style="opacity:1" fill="#0a6abd" d="M 87.5,152.5 C 87.0834,156.817 87.7501,160.817 89.5,164.5C 89.8333,167.167 90.1667,169.833 90.5,172.5C 90.719,173.675 90.3857,174.675 89.5,175.5C 87.9745,175.994 86.6412,176.661 85.5,177.5C 75.8558,178.527 66.1891,178.693 56.5,178C 48.7142,174.591 45.5475,168.758 47,160.5C 51.5048,151.002 57.8382,143.002 66,136.5C 73.3545,141.703 80.5212,147.036 87.5,152.5 Z"/></g>
<g><path style="opacity:1" fill="#055092" d="M 196.5,177.5 C 188.039,178.033 183.039,177.7 181.5,176.5C 181.5,165.167 181.5,153.833 181.5,142.5C 183.812,140.364 186.312,138.364 189,136.5C 196.453,142.622 202.453,149.955 207,158.5C 210.596,169.021 207.096,175.354 196.5,177.5 Z"/></g>
<g><path style="opacity:1" fill="#0f579b" d="M 181.5,142.5 C 181.5,153.833 181.5,165.167 181.5,176.5C 183.039,177.7 188.039,178.033 196.5,177.5C 186.304,178.779 175.971,178.612 165.5,177C 164.484,176.481 163.818,175.647 163.5,174.5C 164.942,166.85 166.275,159.183 167.5,151.5C 172.202,148.447 176.869,145.447 181.5,142.5 Z"/></g>
<g><path style="opacity:1" fill="#4686c1" d="M 87.5,152.5 C 88.4824,156.316 89.1491,160.316 89.5,164.5C 87.7501,160.817 87.0834,156.817 87.5,152.5 Z"/></g>
<g><path style="opacity:1" fill="#0c66b4" d="M 98.5,158.5 C 104.6,161.384 110.6,164.551 116.5,168C 114.807,168.847 113.14,169.68 111.5,170.5C 108.848,170.41 106.515,171.076 104.5,172.5C 102.883,173.038 101.216,173.371 99.5,173.5C 98.8333,169.5 98.1667,165.5 97.5,161.5C 97.2627,160.209 97.596,159.209 98.5,158.5 Z"/></g>
<g><path style="opacity:1" fill="#5e96c5" d="M 98.5,158.5 C 97.596,159.209 97.2627,160.209 97.5,161.5C 96.218,160.292 96.218,158.958 97.5,157.5C 98.1067,157.624 98.44,157.957 98.5,158.5 Z"/></g>
<g><path style="opacity:1" fill="#6894bc" d="M 156.5,158.5 C 157.472,157.249 158.139,157.582 158.5,159.5C 158.457,160.416 158.124,161.083 157.5,161.5C 157.737,160.209 157.404,159.209 156.5,158.5 Z"/></g>
<g><path style="opacity:1" fill="#1d62a7" d="M 156.5,158.5 C 157.404,159.209 157.737,160.209 157.5,161.5C 157.459,165.616 156.793,169.616 155.5,173.5C 149.254,172.484 143.254,170.65 137.5,168C 143.577,164.295 149.91,161.128 156.5,158.5 Z"/></g>
<g><path style="opacity:1" fill="#8faeca" d="M 111.5,170.5 C 109.485,171.924 107.152,172.59 104.5,172.5C 106.515,171.076 108.848,170.41 111.5,170.5 Z"/></g>
<g><path style="opacity:1" fill="#065fac" d="M 151.5,180.5 C 152.11,181.391 152.443,182.391 152.5,183.5C 149.912,192.008 145.745,199.675 140,206.5C 130.965,214.791 122.299,214.457 114,205.5C 108.836,198.838 105.003,191.505 102.5,183.5C 102.557,182.391 102.89,181.391 103.5,180.5C 103.833,180.5 104.167,180.5 104.5,180.5C 109.703,179.991 114.37,178.324 118.5,175.5C 121.267,174.369 124.1,173.369 127,172.5C 135.016,175.672 143.183,178.339 151.5,180.5 Z"/></g>
<g><path style="opacity:1" fill="#6e9ec9" d="M 90.5,172.5 C 91.7919,176.439 90.1253,178.105 85.5,177.5C 86.6412,176.661 87.9745,175.994 89.5,175.5C 90.3857,174.675 90.719,173.675 90.5,172.5 Z"/></g>
<g><path style="opacity:1" fill="#4380bc" d="M 118.5,175.5 C 114.37,178.324 109.703,179.991 104.5,180.5C 108.94,178.462 113.607,176.796 118.5,175.5 Z"/></g>
<g><path style="opacity:1" fill="#7da1c1" d="M 151.5,180.5 C 153.552,181.053 153.885,182.053 152.5,183.5C 152.443,182.391 152.11,181.391 151.5,180.5 Z"/></g>
<g><path style="opacity:1" fill="#74a1c8" d="M 103.5,180.5 C 102.89,181.391 102.557,182.391 102.5,183.5C 101.115,182.053 101.448,181.053 103.5,180.5 Z"/></g>
<g><path style="opacity:0.999" fill="#014c8c" d="M 209.5,180.5 C 210.185,205.372 210.851,230.372 211.5,255.5C 206.5,255.5 201.5,255.5 196.5,255.5C 197.535,232.465 197.535,209.465 196.5,186.5C 198.38,186.771 199.713,186.104 200.5,184.5C 203.428,183.183 206.428,181.85 209.5,180.5 Z"/></g>
<g><path style="opacity:1" fill="#0069be" d="M 48.5,182.5 C 53.2622,184.642 58.2622,185.975 63.5,186.5C 65.8927,187.21 68.3927,187.877 71,188.5C 71.5,210.831 71.6666,233.164 71.5,255.5C 63.5,255.5 55.5,255.5 47.5,255.5C 47.177,231.092 47.5103,206.759 48.5,182.5 Z"/></g>
<g><path style="opacity:1" fill="#4585c1" d="M 94.5,185.5 C 90.2736,185.057 85.9403,185.057 81.5,185.5C 84.6424,184.567 87.9758,183.901 91.5,183.5C 93.0296,183.64 94.0296,184.307 94.5,185.5 Z"/></g>
<g><path style="opacity:1" fill="#0065b8" d="M 94.5,185.5 C 93.638,208.931 93.638,232.264 94.5,255.5C 86.8333,255.5 79.1667,255.5 71.5,255.5C 71.6666,233.164 71.5,210.831 71,188.5C 68.3927,187.877 65.8927,187.21 63.5,186.5C 69.5293,186.575 75.5293,186.241 81.5,185.5C 85.9403,185.057 90.2736,185.057 94.5,185.5 Z"/></g>
<g><path style="opacity:1" fill="#0458a1" d="M 169.5,185.5 C 168.167,185.5 166.833,185.5 165.5,185.5C 165.5,208.833 165.5,232.167 165.5,255.5C 156.5,255.5 147.5,255.5 138.5,255.5C 138.667,243.162 138.5,230.829 138,218.5C 136.644,219.38 135.144,219.714 133.5,219.5C 136.9,217.963 140.233,216.13 143.5,214C 151.86,205.786 157.527,195.952 160.5,184.5C 163.713,183.414 166.713,183.747 169.5,185.5 Z"/></g>
<g><path style="opacity:1" fill="#005399" d="M 200.5,184.5 C 199.713,186.104 198.38,186.771 196.5,186.5C 191.87,187.229 187.203,187.563 182.5,187.5C 182.5,210.167 182.5,232.833 182.5,255.5C 176.833,255.5 171.167,255.5 165.5,255.5C 165.5,232.167 165.5,208.833 165.5,185.5C 166.833,185.5 168.167,185.5 169.5,185.5C 179.893,186.978 190.226,186.645 200.5,184.5 Z"/></g>
<g><path style="opacity:1" fill="#004f92" d="M 196.5,186.5 C 197.535,209.465 197.535,232.465 196.5,255.5C 191.833,255.5 187.167,255.5 182.5,255.5C 182.5,232.833 182.5,210.167 182.5,187.5C 187.203,187.563 191.87,187.229 196.5,186.5 Z"/></g>
<g><path style="opacity:1" fill="#0462b2" d="M 94.5,185.5 C 98.2122,196.079 103.879,205.579 111.5,214C 117.609,219.321 124.609,221.154 132.5,219.5C 129.316,221.414 125.649,222.08 121.5,221.5C 121.5,232.833 121.5,244.167 121.5,255.5C 112.5,255.5 103.5,255.5 94.5,255.5C 93.638,232.264 93.638,208.931 94.5,185.5 Z"/></g>
<g><path style="opacity:1" fill="#005eab" d="M 138.5,255.5 C 132.833,255.5 127.167,255.5 121.5,255.5C 121.5,244.167 121.5,232.833 121.5,221.5C 125.649,222.08 129.316,221.414 132.5,219.5C 132.833,219.5 133.167,219.5 133.5,219.5C 135.144,219.714 136.644,219.38 138,218.5C 138.5,230.829 138.667,243.162 138.5,255.5 Z"/></g>
</svg>
